<svg width="512" height="512" viewBox="0 0 512 512" fill="none" xmlns="http://www.w3.org/2000/svg">
<g clip-path="url(#clip0_191_3)">
<path d="M251.706 512C219.88 512 189.357 499.357 166.853 476.853L35.1472 345.147C12.6428 322.643 0 292.12 0 260.294V50C0 22.3858 22.3858 0 50 0H260.294C292.12 0 322.643 12.6428 345.147 35.1472L476.853 166.853C499.357 189.357 512 219.88 512 251.706V462C512 489.614 489.614 512 462 512H251.706Z" fill="#FD9A00"/>
<path d="M125.426 250.36C118.986 250.36 113.619 248.98 109.326 246.22C105.033 243.307 101.813 239.473 99.666 234.72C97.5193 229.967 96.5227 224.753 96.676 219.08C96.676 211.873 98.516 204.743 102.196 197.69C106.029 190.637 111.933 184.81 119.906 180.21C128.033 175.457 138.306 173.08 150.726 173.08C159.926 173.08 168.513 173.77 176.486 175.15C184.613 176.377 192.356 177.68 199.716 179.06C207.076 180.44 214.359 181.13 221.566 181.13C227.853 181.13 233.679 180.363 239.046 178.83C244.413 177.297 249.319 174.383 253.766 170.09C256.526 171.93 258.596 174.537 259.976 177.91C261.356 181.13 262.046 184.657 262.046 188.49C262.046 192.63 261.049 196.77 259.056 200.91C257.216 205.05 254.226 208.5 250.086 211.26C246.099 213.867 240.963 215.17 234.676 215.17C226.703 215.17 219.419 214.02 212.826 211.72C206.233 209.267 200.176 206.43 194.656 203.21C189.289 199.837 184.229 196.693 179.476 193.78L179.016 191.71C175.643 190.33 172.576 189.487 169.816 189.18C167.056 188.873 164.143 188.72 161.076 188.72C153.103 188.72 146.739 191.25 141.986 196.31C137.233 201.217 134.856 208.577 134.856 218.39C134.703 222.837 135.009 227.13 135.776 231.27C136.696 235.257 138.383 239.627 140.836 244.38C138.689 246.527 136.159 248.06 133.246 248.98C130.333 249.9 127.726 250.36 125.426 250.36ZM154.406 340.06C149.193 340.06 144.516 339.063 140.376 337.07C136.236 335.23 133.859 332.7 133.246 329.48C135.546 328.407 137.386 326.95 138.766 325.11C140.146 323.117 141.219 320.587 141.986 317.52C142.906 314.3 143.749 310.16 144.516 305.1L159.466 228.05C162.073 214.403 167.363 204.053 175.336 197C183.463 189.793 195.193 185.423 210.526 183.89L187.526 305.79C186.146 313.303 184.229 319.59 181.776 324.65C179.323 329.71 175.949 333.543 171.656 336.15C167.363 338.757 161.613 340.06 154.406 340.06ZM304.697 378.01C296.877 378.01 290.513 375.327 285.607 369.96C280.853 364.747 278.553 358.23 278.707 350.41C279.013 343.663 280.93 337.07 284.457 330.63C288.137 324.037 293.503 317.213 300.557 310.16C307.763 303.107 316.81 295.363 327.697 286.93C333.37 281.717 338.737 275.813 343.797 269.22C349.01 262.473 353.61 255.343 357.597 247.83C361.737 240.163 365.033 232.42 367.487 224.6C369.94 216.78 371.243 209.19 371.397 201.83C371.55 196.923 371.09 192.477 370.017 188.49C369.097 184.35 367.487 180.593 365.187 177.22C368.56 173.233 372.47 170.243 376.917 168.25C381.363 166.103 385.733 165.03 390.027 165.03C394.013 165.03 397.693 166.027 401.067 168.02C404.44 169.86 407.047 172.85 408.887 176.99C410.88 180.977 411.8 186.113 411.647 192.4C411.187 203.747 408.58 214.557 403.827 224.83C399.227 235.103 393.323 244.84 386.117 254.04C378.91 263.24 371.32 271.903 363.347 280.03C355.833 288.003 348.55 295.517 341.497 302.57C334.443 309.623 328.617 316.37 324.017 322.81C319.57 329.25 317.193 335.537 316.887 341.67C316.733 346.73 317.883 351.33 320.337 355.47C322.943 359.61 326.777 363.75 331.837 367.89C327.85 371.417 323.557 373.947 318.957 375.48C314.357 377.167 309.603 378.01 304.697 378.01ZM300.097 305.1C300.25 299.733 300.173 294.213 299.867 288.54C299.56 282.867 299.177 277.04 298.717 271.06C297.797 261.4 296.57 252.2 295.037 243.46C293.503 234.72 291.663 226.823 289.517 219.77C287.37 212.563 284.993 206.507 282.387 201.6C279.78 196.54 276.943 192.937 273.877 190.79C276.943 186.803 280.547 183.813 284.687 181.82C288.98 179.673 293.427 178.6 298.027 178.6C303.853 178.6 309.297 180.67 314.357 184.81C319.57 188.95 323.863 195.083 327.237 203.21C330.763 211.337 333.063 221.533 334.137 233.8C334.903 243.613 335.057 254.423 334.597 266.23C334.29 277.883 333.293 290.457 331.607 303.95L300.097 305.1Z" fill="#1B1A1A"/>
</g>
<defs>
<clipPath id="clip0_191_3">
<rect width="512" height="512" fill="white"/>
</clipPath>
</defs>
</svg>
