<svg width="1124.5" height="471.5" viewBox="-0.5 38.5 1124.5 471" fill="none" xmlns="http://www.w3.org/2000/svg">
<path d="M126.404 157.393C118.283 157.393 111.955 155.178 107.42 150.748C102.885 146.213 100.617 140.254 100.617 132.871C100.617 125.805 103.57 118.158 109.477 109.932C115.488 101.6 123.715 93.7422 134.156 86.3594C144.598 78.9766 156.516 73.0176 169.91 68.4824C174.973 66.7949 180.879 65.4238 187.629 64.3691C194.379 63.209 201.287 62.3652 208.354 61.8379C215.525 61.3105 222.012 61.0469 227.812 61.0469C235.723 61.0469 243.738 61.5742 251.859 62.6289C260.086 63.5781 266.625 64.5801 271.477 65.6348C277.383 66.6895 283.658 67.4805 290.303 68.0078C296.947 68.5352 301.799 68.7988 304.857 68.7988C312.662 68.7988 320.361 67.4805 327.955 64.8438C335.549 62.207 342.352 58.7793 348.363 54.5605C354.375 50.3418 358.857 45.9121 361.811 41.2715C362.549 40.0059 363.129 39.2676 363.551 39.0566C364.078 38.7402 364.5 38.582 364.816 38.582C365.977 38.582 366.557 39.1094 366.557 40.1641C366.557 41.6406 364.816 44.5938 361.336 49.0234C356.062 55.2461 348.891 60.8359 339.82 65.793C330.855 70.6445 320.783 74.4941 309.604 77.3418C298.424 80.1895 286.928 81.6133 275.115 81.6133C269.947 81.6133 264.094 81.2441 257.555 80.5059C251.016 79.6621 242.736 78.1855 232.717 76.0762C224.068 74.3887 216.105 73.1758 208.828 72.4375C201.551 71.6992 195.434 71.3301 190.477 71.3301C180.984 71.3301 171.229 73.2812 161.209 77.1836C151.295 81.0859 142.066 86.2012 133.523 92.5293C125.086 98.752 118.23 105.502 112.957 112.779C107.684 120.057 105.047 127.123 105.047 133.979C105.047 138.936 106.682 143.26 109.951 146.951C113.221 150.537 118.178 152.33 124.822 152.33C130.834 152.33 137.479 149.957 144.756 145.211C152.033 140.359 159.1 134.4 165.955 127.334C172.811 120.162 178.664 112.938 183.516 105.66C188.367 98.2773 191.426 92.002 192.691 86.834C193.113 84.9355 193.43 83.8281 193.641 83.5117C193.957 83.0898 194.273 82.8789 194.59 82.8789C195.75 82.8789 196.33 84.1973 196.33 86.834C196.33 95.5879 194.115 104.184 189.686 112.621C185.361 120.953 179.666 128.494 172.6 135.244C165.639 141.994 158.098 147.373 149.977 151.381C141.855 155.389 133.998 157.393 126.404 157.393ZM40.9746 280.316C33.8027 280.316 27.1055 279.262 20.8828 277.152C14.6602 275.043 9.59766 272.037 5.69531 268.135C1.89844 264.127 0 259.381 0 253.896C0 249.15 1.63477 245.775 4.9043 243.771C8.2793 241.662 11.6016 240.607 14.8711 240.607C16.5586 240.607 18.2988 241.188 20.0918 242.348C21.8848 243.508 22.7812 245.354 22.7812 247.885C22.7812 249.889 21.8848 251.734 20.0918 253.422C18.4043 255.004 16.3477 255.795 13.9219 255.795C12.5508 255.795 11.1797 255.689 9.80859 255.479C8.54297 255.268 7.38281 254.846 6.32812 254.213V255.162C6.32812 262.229 9.75586 267.449 16.6113 270.824C23.5723 274.199 32.1152 275.887 42.2402 275.887C58.166 275.887 74.7246 270.086 91.916 258.484C109.213 246.777 125.402 229.059 140.484 205.328C145.125 198.156 150.398 190.773 156.305 183.18C162.211 175.586 168.697 167.623 175.764 159.291C187.893 145.369 199.336 133.398 210.094 123.379C220.957 113.359 230.186 105.66 237.779 100.281C245.373 94.9023 250.225 92.2129 252.334 92.2129C253.811 92.2129 254.549 92.6875 254.549 93.6367C254.549 94.7969 253.494 96.0098 251.385 97.2754C245.795 100.967 240.996 104.395 236.988 107.559C233.086 110.723 229.236 114.572 225.439 119.107C221.643 123.537 217.266 129.391 212.309 136.668C207.352 143.84 201.076 153.332 193.482 165.145C175.131 193.516 157.201 216.139 139.693 233.014C122.186 249.889 105.152 262.018 88.5938 269.4C72.1406 276.678 56.2676 280.316 40.9746 280.316ZM205.348 280.316C196.488 280.316 189.949 278.312 185.73 274.305C181.512 270.191 179.139 265.182 178.611 259.275C178.295 252.104 179.771 244.404 183.041 236.178C186.416 227.951 190.055 221.043 193.957 215.453C199.125 208.176 205.4 201.215 212.783 194.57C220.166 187.82 228.234 182.336 236.988 178.117C245.848 173.793 254.918 171.631 264.199 171.631C269.789 171.631 274.588 173.107 278.596 176.061C282.709 178.908 284.977 183.496 285.398 189.824C285.926 198.789 284.186 208.229 280.178 218.143C276.17 227.951 270.738 237.074 263.883 245.512C264.621 248.57 266.994 250.1 271.002 250.1C274.904 250.1 279.176 248.57 283.816 245.512C288.457 242.348 292.939 238.656 297.264 234.438C301.693 230.219 305.49 226.316 308.654 222.73C311.818 219.145 313.928 216.824 314.982 215.77L318.463 218.459C316.459 220.357 313.611 223.311 309.92 227.318C306.229 231.221 302.115 235.281 297.58 239.5C293.15 243.613 288.562 247.146 283.816 250.1C279.176 253.053 274.799 254.529 270.686 254.529C265.623 254.529 262.195 252.947 260.402 249.783C252.598 258.643 243.791 265.973 233.982 271.773C224.279 277.469 214.734 280.316 205.348 280.316ZM209.461 275.57C213.152 275.57 217.424 274.516 222.275 272.406C227.127 270.297 231.979 267.502 236.83 264.021C244.951 258.221 252.281 251.418 258.82 243.613V242.98C258.82 236.441 260.508 231.273 263.883 227.477C267.363 223.574 270.738 221.096 274.008 220.041C279.176 209.283 281.496 199.633 280.969 191.09C280.652 185.922 279.281 182.336 276.855 180.332C274.535 178.328 271.951 177.326 269.104 177.326C262.986 177.326 255.445 180.965 246.48 188.242C237.621 195.414 227.707 205.803 216.738 219.408C208.934 229.217 203.449 237.496 200.285 244.246C197.227 250.996 195.908 256.85 196.33 261.807C196.33 264.654 197.279 267.66 199.178 270.824C201.182 273.988 204.609 275.57 209.461 275.57ZM340.453 280.316C334.547 280.316 329.748 278.84 326.057 275.887C322.365 272.828 320.52 268.873 320.52 264.021C320.52 255.584 326.689 245.406 339.029 233.488C351.369 221.57 368.086 208.545 389.18 194.412C378.422 192.619 369.141 190.826 361.336 189.033C353.637 187.24 347.467 185.289 342.826 183.18C340.717 187.398 337.658 192.566 333.65 198.684C329.643 204.801 324.527 211.393 318.305 218.459C314.086 223.416 310.922 226.896 308.812 228.9C306.703 230.904 305.227 232.117 304.383 232.539C303.645 232.855 303.223 233.119 303.117 233.33C302.801 233.436 302.59 233.119 302.484 232.381C302.484 231.643 302.537 231.062 302.643 230.641C302.643 230.219 303.434 229.217 305.016 227.635C306.598 226.053 309.92 222.098 314.982 215.77C320.256 209.125 324.949 202.797 329.062 196.785C333.176 190.773 336.34 185.5 338.555 180.965C334.758 178.539 332.543 175.85 331.91 172.896C331.066 167.834 332.068 163.246 334.916 159.133C337.764 155.02 341.455 152.963 345.99 152.963C351.58 152.963 354.375 155.389 354.375 160.24C354.375 162.666 353.9 164.723 352.951 166.41C352.002 168.098 351.053 169.732 350.104 171.314C348.205 173.529 347.256 176.324 347.256 179.699C347.256 180.754 349.049 181.914 352.635 183.18C356.326 184.34 360.809 185.5 366.082 186.66C371.461 187.715 376.734 188.664 381.902 189.508C387.07 190.246 391.131 190.721 394.084 190.932C396.088 191.037 397.301 191.406 397.723 192.039C398.25 192.566 398.514 192.988 398.514 193.305C398.514 194.359 396.984 196.1 393.926 198.525C388.125 202.955 382.166 208.334 376.049 214.662C369.932 220.885 364.236 227.371 358.963 234.121C353.689 240.766 349.418 247.041 346.148 252.947C342.879 258.854 341.244 263.705 341.244 267.502C341.244 272.459 343.248 274.938 347.256 274.938C352.424 274.938 358.066 273.197 364.184 269.717C370.301 266.236 376.471 261.859 382.693 256.586C389.021 251.312 394.928 245.881 400.412 240.291C406.002 234.596 410.801 229.533 414.809 225.104C418.816 220.568 421.611 217.457 423.193 215.77L426.357 218.459C424.037 220.674 420.715 224.207 416.391 229.059C412.172 233.805 407.215 239.131 401.52 245.037C395.824 250.838 389.602 256.428 382.852 261.807C376.207 267.186 369.299 271.615 362.127 275.096C354.955 278.576 347.73 280.316 340.453 280.316ZM414.176 283.639C410.906 283.639 406.688 283.217 401.52 282.373C396.352 281.529 391.764 279.736 387.756 276.994C383.643 274.252 381.586 269.98 381.586 264.18C381.586 258.906 383.221 254.582 386.49 251.207C389.654 247.727 393.188 245.143 397.09 243.455C400.992 241.768 403.893 240.924 405.791 240.924C410.115 240.924 412.277 242.928 412.277 246.936C412.172 248.623 410.959 250.205 408.639 251.682C406.424 253.053 403.945 253.738 401.203 253.738C399.938 253.738 398.725 253.316 397.564 252.473C396.299 251.523 395.297 250.838 394.559 250.416C393.398 251.576 391.658 253.316 389.338 255.637C386.912 257.852 385.699 260.752 385.699 264.338C385.699 268.346 387.334 271.352 390.604 273.355C393.768 275.254 397.354 276.52 401.361 277.152C405.369 277.68 408.428 277.943 410.537 277.943C414.967 277.943 420.504 276.203 427.148 272.723C433.793 269.137 439.963 263.178 445.658 254.846C451.459 246.514 455.203 235.176 456.891 220.832C457.418 215.77 457.893 208.756 458.314 199.791C458.842 190.826 460.529 182.23 463.377 174.004C463.482 173.688 463.535 173.213 463.535 172.58C459.527 177.537 455.203 182.863 450.562 188.559C445.922 194.254 441.439 199.738 437.115 205.012C432.896 210.285 429.258 214.768 426.199 218.459C424.09 220.99 422.561 222.625 421.611 223.363C420.662 224.102 420.24 224.471 420.346 224.471C420.24 224.471 419.818 224.523 419.08 224.629C418.447 224.629 417.92 224.26 417.498 223.521C417.287 222.994 417.762 221.992 418.922 220.516C420.188 219.039 421.506 217.457 422.877 215.77C425.303 213.027 429.047 208.65 434.109 202.639C439.172 196.627 444.498 190.193 450.088 183.338C455.783 176.482 460.688 170.418 464.801 165.145C465.434 161.98 466.383 159.133 467.648 156.602C468.914 154.07 470.707 152.805 473.027 152.805C477.246 152.805 479.355 154.545 479.355 158.025C479.25 160.029 476.824 163.773 472.078 169.258C469.23 172.633 467.701 174.848 467.49 175.902C467.279 176.852 467.174 178.117 467.174 179.699C467.068 183.496 467.438 188.242 468.281 193.938C469.23 199.527 470.232 205.434 471.287 211.656C472.342 217.773 473.027 223.627 473.344 229.217C473.66 237.549 472.711 244.773 470.496 250.891C472.184 251.102 473.607 251.207 474.768 251.207C478.143 251.207 481.992 249.678 486.316 246.619C490.746 243.561 495.123 239.922 499.447 235.703C503.771 231.484 507.516 227.477 510.68 223.68C513.949 219.883 516.111 217.246 517.166 215.77L520.646 218.459C518.854 220.357 516.217 223.311 512.736 227.318C509.256 231.221 505.301 235.334 500.871 239.658C496.441 243.877 491.906 247.516 487.266 250.574C482.73 253.527 478.406 255.004 474.293 255.004C473.344 255.004 472.447 255.004 471.604 255.004C470.76 254.898 469.916 254.793 469.072 254.688C464.115 265.656 456.785 273.25 447.082 277.469C437.379 281.582 426.41 283.639 414.176 283.639ZM506.25 280.316C500.449 280.316 496.125 279.156 493.277 276.836C490.324 274.516 488.848 271.562 488.848 267.977C488.848 265.129 489.217 262.334 489.955 259.592C490.693 256.744 492.275 253.158 494.701 248.834C497.127 244.51 500.818 238.709 505.775 231.432C510.732 224.049 517.43 214.398 525.867 202.48L566.684 145.053H554.186C551.021 145.053 549.439 144.367 549.439 142.996C549.439 141.309 551.443 140.465 555.451 140.465H569.848L599.115 99.332C600.486 99.543 602.279 99.7539 604.494 99.9648C606.814 100.07 610.084 100.07 614.303 99.9648C616.412 99.9648 618.68 99.7539 621.105 99.332L590.572 140.465H631.389C634.342 140.465 635.818 141.203 635.818 142.68C635.818 144.262 634.5 145.053 631.863 145.053H587.092L545.326 201.373C535.412 214.662 527.449 225.578 521.438 234.121C515.426 242.664 510.838 249.414 507.674 254.371C504.615 259.328 502.506 263.02 501.346 265.445C500.291 267.871 499.764 269.664 499.764 270.824C499.764 273.988 502.4 275.676 507.674 275.887C514.951 275.781 522.439 273.408 530.139 268.768C537.943 264.021 545.432 258.273 552.604 251.523C559.775 244.668 566.209 237.971 571.904 231.432C577.6 224.787 582.029 219.566 585.193 215.77L588.674 218.459C585.615 222.045 581.133 227.213 575.227 233.963C569.32 240.713 562.518 247.674 554.818 254.846C547.225 261.912 539.262 267.924 530.93 272.881C522.598 277.838 514.371 280.316 506.25 280.316ZM596.9 280.949C586.564 280.949 579.182 278.26 574.752 272.881C570.322 267.502 568.002 260.91 567.791 253.105C567.686 247.41 568.846 241.082 571.271 234.121C573.697 227.16 576.229 221.834 578.865 218.143C586.67 207.279 595.107 198.42 604.178 191.564C613.248 184.709 622.107 179.699 630.756 176.535C639.51 173.266 647.209 171.631 653.854 171.631C660.287 171.631 664.77 172.686 667.301 174.795C669.938 176.904 671.309 179.33 671.414 182.072C671.73 186.186 669.516 190.984 664.77 196.469C660.129 201.848 651.955 207.701 640.248 214.029C628.541 220.357 612.193 227.002 591.205 233.963C587.514 239.869 585.035 244.984 583.77 249.309C582.504 253.527 581.871 257.324 581.871 260.699C581.871 265.656 583.506 269.506 586.775 272.248C590.15 274.99 594.105 276.361 598.641 276.361C608.555 276.361 617.836 274.516 626.484 270.824C635.238 267.027 643.201 262.281 650.373 256.586C657.65 250.891 664.031 245.143 669.516 239.342C675 233.436 679.482 228.32 682.963 223.996C686.443 219.566 688.764 216.824 689.924 215.77L693.246 218.459C691.664 219.83 688.975 222.836 685.178 227.477C681.486 232.117 676.74 237.443 670.939 243.455C665.244 249.467 658.652 255.32 651.164 261.016C643.676 266.711 635.344 271.457 626.168 275.254C617.098 279.051 607.342 280.949 596.9 280.949ZM594.844 228.426C615.305 221.254 631.441 213.871 643.254 206.277C655.066 198.578 660.973 191.248 660.973 184.287C660.973 178.381 658.23 175.428 652.746 175.428C645.68 175.428 638.033 179.225 629.807 186.818C621.58 194.412 611.982 205.434 601.014 219.883C598.693 222.836 596.637 225.684 594.844 228.426ZM776.303 280.316C770.502 280.316 765.439 279.209 761.115 276.994C756.896 274.779 754.787 271.826 754.787 268.135C754.787 265.287 755.42 261.965 756.686 258.168C757.951 254.266 760.957 248.939 765.703 242.189C770.555 235.439 778.148 226.264 788.484 214.662C796.816 205.275 802.564 197.998 805.729 192.83C808.893 187.662 810.475 183.812 810.475 181.281C810.475 179.805 809.947 178.486 808.893 177.326C807.838 176.166 805.834 175.586 802.881 175.586C800.771 175.586 797.924 176.271 794.338 177.643C790.857 179.014 786.691 181.334 781.84 184.604C773.508 190.299 763.277 199.105 751.148 211.023C739.02 222.836 725.098 238.393 709.383 257.693L694.67 276.994C691.928 276.467 688.869 276.203 685.494 276.203C681.697 276.203 678.533 276.414 676.002 276.836C673.576 277.152 671.73 277.469 670.465 277.785C682.277 260.699 692.139 246.566 700.049 235.387C707.959 224.102 714.287 215.084 719.033 208.334C723.885 201.584 727.471 196.469 729.791 192.988C732.217 189.402 733.852 186.871 734.695 185.395C735.539 183.812 736.014 182.547 736.119 181.598C736.33 178.539 735.17 177.01 732.639 177.01C731.162 177.01 728.842 178.486 725.678 181.439C722.514 184.393 718.928 188.084 714.92 192.514C711.018 196.943 707.168 201.531 703.371 206.277C699.574 210.918 696.252 214.979 693.404 218.459C692.666 218.881 691.717 218.617 690.557 217.668C689.924 216.719 689.766 216.086 690.082 215.77C693.141 212.5 696.568 208.439 700.365 203.588C704.268 198.631 708.328 193.727 712.547 188.875C716.766 183.918 721.09 179.805 725.52 176.535C729.949 173.266 734.221 171.631 738.334 171.631C741.393 171.631 744.398 172.316 747.352 173.688C750.41 174.953 751.676 178.064 751.148 183.021C751.043 184.709 750.516 186.871 749.566 189.508C748.617 192.039 746.719 195.309 743.871 199.316L710.648 245.512L711.439 247.252C727.893 228.689 741.604 214.135 752.572 203.588C763.646 192.936 772.98 185.078 780.574 180.016C785.637 176.641 790.066 174.426 793.863 173.371C797.766 172.211 801.352 171.631 804.621 171.631C811.477 171.631 816.275 173.318 819.018 176.693C821.865 179.963 823.236 183.602 823.131 187.609C823.025 191.828 821.602 196.891 818.859 202.797C816.223 208.598 811.635 215.875 805.096 224.629C798.662 233.277 789.592 243.982 777.885 256.744C772.506 262.439 769.236 266.131 768.076 267.818C767.021 269.4 766.494 270.877 766.494 272.248C766.494 273.303 767.549 274.199 769.658 274.938C771.873 275.57 774.615 275.887 777.885 275.887C784.318 275.887 790.91 274.041 797.66 270.35C804.41 266.658 810.949 262.07 817.277 256.586C823.711 250.996 829.564 245.301 834.838 239.5C840.111 233.699 844.488 228.584 847.969 224.154C851.555 219.725 853.875 216.93 854.93 215.77L858.252 218.459C856.986 219.83 854.508 222.783 850.816 227.318C847.23 231.854 842.695 237.127 837.211 243.139C831.727 249.045 825.662 254.846 819.018 260.541C812.373 266.236 805.412 270.982 798.135 274.779C790.857 278.471 783.58 280.316 776.303 280.316Z" fill="black"/>
<path d="M440.976 463V394.136L385.424 276.12H414.096L447.12 346.776C449.339 351.384 451.131 355.736 452.496 359.832C453.861 363.757 454.8 366.829 455.312 369.048C455.653 366.829 456.507 363.757 457.872 359.832C459.408 355.736 461.2 351.384 463.248 346.776L495.504 276.12H524.176L468.624 394.136V463H440.976ZM608.3 465.304C596.695 465.304 586.625 463.085 578.092 458.648C569.559 454.211 562.988 447.896 558.38 439.704C553.772 431.512 551.468 421.869 551.468 410.776V374.424C551.468 363.16 553.772 353.517 558.38 345.496C562.988 337.304 569.559 330.989 578.092 326.552C586.625 322.115 596.695 319.896 608.3 319.896C619.905 319.896 629.975 322.115 638.508 326.552C647.041 330.989 653.612 337.304 658.22 345.496C662.828 353.517 665.132 363.16 665.132 374.424V410.776C665.132 421.869 662.828 431.512 658.22 439.704C653.612 447.896 647.041 454.211 638.508 458.648C629.975 463.085 619.905 465.304 608.3 465.304ZM608.3 440.984C617.687 440.984 624.94 438.424 630.06 433.304C635.18 428.013 637.74 420.504 637.74 410.776V374.424C637.74 364.525 635.18 357.016 630.06 351.896C624.94 346.776 617.687 344.216 608.3 344.216C599.084 344.216 591.831 346.776 586.54 351.896C581.42 357.016 578.86 364.525 578.86 374.424V410.776C578.86 420.504 581.42 428.013 586.54 433.304C591.831 438.424 599.084 440.984 608.3 440.984ZM761.544 465.56C744.648 465.56 731.165 460.696 721.096 450.968C711.027 441.069 705.992 427.672 705.992 410.776V322.2H733.64V410.776C733.64 420.504 736.115 428.099 741.064 433.56C746.013 438.851 752.84 441.496 761.544 441.496C770.419 441.496 777.331 438.851 782.28 433.56C787.4 428.099 789.96 420.504 789.96 410.776V322.2H817.608V410.776C817.608 427.672 812.488 441.069 802.248 450.968C792.179 460.696 778.611 465.56 761.544 465.56ZM860.004 463V322.2H887.396V349.08H894.052L887.396 355.48C887.396 344.216 890.724 335.427 897.38 329.112C904.036 322.797 913.252 319.64 925.028 319.64C939.023 319.64 950.201 324.163 958.564 333.208C966.927 342.083 971.108 354.115 971.108 369.304V463H943.46V372.376C943.46 363.16 940.985 356.077 936.036 351.128C931.087 346.179 924.345 343.704 915.812 343.704C907.108 343.704 900.196 346.349 895.076 351.64C890.127 356.76 887.652 364.269 887.652 374.168V463H860.004ZM1031.94 509.08V485.272H1075.2C1082.37 485.272 1087.66 483.565 1091.07 480.152C1094.66 476.739 1096.45 471.704 1096.45 465.048V450.968L1096.96 424.856H1091.07L1096.7 419.736C1096.7 430.488 1093.29 438.936 1086.46 445.08C1079.81 451.224 1070.76 454.296 1059.33 454.296C1044.82 454.296 1033.39 449.517 1025.02 439.96C1016.66 430.403 1012.48 417.517 1012.48 401.304V372.632C1012.48 356.419 1016.66 343.533 1025.02 333.976C1033.39 324.419 1044.82 319.64 1059.33 319.64C1070.76 319.64 1079.81 322.797 1086.46 329.112C1093.29 335.256 1096.7 343.704 1096.7 354.456L1091.07 349.08H1096.7L1096.45 322.2H1123.84V465.56C1123.84 479.043 1119.57 489.624 1111.04 497.304C1102.51 505.155 1090.65 509.08 1075.46 509.08H1031.94ZM1068.29 430.488C1076.99 430.488 1083.82 427.843 1088.77 422.552C1093.89 417.091 1096.45 409.581 1096.45 400.024V374.168C1096.45 364.611 1093.89 357.187 1088.77 351.896C1083.82 346.435 1076.99 343.704 1068.29 343.704C1059.24 343.704 1052.25 346.349 1047.3 351.64C1042.52 356.76 1040.13 364.269 1040.13 374.168V400.024C1040.13 409.752 1042.52 417.261 1047.3 422.552C1052.25 427.843 1059.24 430.488 1068.29 430.488Z" fill="black"/>
<line y1="279.5" x2="1123" y2="279.5" stroke="black"/>
<line x1="79" y1="145.5" x2="1123" y2="145.5" stroke="black"/>
<line x1="83" y1="140.5" x2="1123" y2="140.5" stroke="black"/>
<line x1="118" y1="99.5" x2="958" y2="99.5" stroke="black"/>
<line x1="150" y1="61.5" x2="990" y2="61.5" stroke="black"/>
<line x1="386" y1="462.5" x2="1123" y2="462.5" stroke="black"/>
<line y1="322.5" x2="1123" y2="322.5" stroke="black"/>
<line x1="386" y1="485.5" x2="1123" y2="485.5" stroke="black"/>
<line y1="508.5" x2="1123" y2="508.5" stroke="black"/>
<rect x="0.5" y="38.5" width="1123" height="470" stroke="black"/>
<line x1="770.617" y1="322.678" x2="1009.62" y2="38.6781" stroke="black"/>
<line x1="0.617148" y1="238.678" x2="168.617" y2="38.6784" stroke="black"/>
<line x1="385.5" y1="508" x2="385.5" y2="274" stroke="black"/>
<line x1="440.5" y1="508" x2="440.5" y2="383" stroke="black"/>
<line x1="468.5" y1="508" x2="468.5" y2="383" stroke="black"/>
<rect x="386" y="275" width="1" height="2" fill="black"/>
<rect x="390" y="276" width="31" height="2" fill="black"/>
<rect x="386" y="277" width="1" height="2" fill="black"/>
<line x1="1123.5" y1="323" x2="1123.5" y2="509" stroke="black"/>
<rect x="1096" y="475" width="27" height="33" fill="black"/>
<rect x="1088" y="496" width="35" height="12" fill="black"/>
<rect x="116.5" y="100" width="1.5" height="2" fill="black"/>
<rect x="117.5" y="99.5" width="0.5" height="0.5" fill="black"/>
<rect x="149.5" y="61.5" width="0.5" height="0.5" fill="black"/>
<rect x="990" y="61" width="0.5" height="0.5" fill="black"/>
<rect x="958" y="99" width="0.5" height="0.5" fill="black"/>
</svg>
